<svg width="179" height="179" viewBox="0 0 179 179" fill="none" xmlns="http://www.w3.org/2000/svg">
<mask id="mask0_391_197" style="mask-type:luminance" maskUnits="userSpaceOnUse" x="0" y="0" width="179" height="179">
<path d="M91.5115 0.870644C90.7967 0.311452 89.9165 0.00523909 89.009 0C88.1014 0.00523909 87.2213 0.311452 86.5064 0.870644C85.7916 1.42984 85.2825 2.2104 85.059 3.09C83.6716 8.62878 81.839 14.0464 79.579 19.29C73.8422 32.7238 65.5985 44.9416 55.289 55.29C45.0023 65.5833 33.0023 73.68 19.289 79.58C14.029 81.8333 8.62898 83.66 3.08898 85.06C2.20702 85.279 1.42375 85.7869 0.863939 86.5028C0.304131 87.2187 0 88.1013 0 89.01C0 89.9187 0.304131 90.8014 0.863939 91.5172C1.42375 92.2331 2.20702 92.741 3.08898 92.96C8.62776 94.3474 14.0454 96.18 19.289 98.44C32.7346 104.155 44.9563 112.401 55.289 122.73C69.7038 137.157 79.9844 155.187 85.059 174.94C85.278 175.822 85.7859 176.605 86.5018 177.165C87.2176 177.725 88.1002 178.029 89.009 178.029C89.9177 178.029 90.8003 177.725 91.5162 177.165C92.232 176.605 92.7399 175.822 92.959 174.94C94.3463 169.401 96.179 163.984 98.439 158.74C104.175 145.303 112.418 133.081 122.729 122.73C137.165 108.327 155.192 98.0482 174.939 92.96C175.821 92.741 176.604 92.2331 177.164 91.5172C177.724 90.8014 178.028 89.9187 178.028 89.01C178.028 88.1013 177.724 87.2187 177.164 86.5028C176.604 85.7869 175.821 85.279 174.939 85.06C169.4 83.6726 163.983 81.84 158.739 79.58C145.302 73.8443 133.08 65.6006 122.729 55.29C112.436 45.0033 104.339 33.0033 98.439 19.29C96.1856 14.03 94.359 8.63 92.959 3.09C92.7354 2.2104 92.2263 1.42984 91.5115 0.870644Z" fill="white"/>
</mask>
<g mask="url(#mask0_391_197)">
<rect x="-6.98584" y="-6.98535" width="192" height="192" fill="#3186FF"/>
</g>
</svg>
