<svg width="128" height="176" viewBox="0 0 128 176" fill="none" xmlns="http://www.w3.org/2000/svg">
<mask id="mask0_391_156" style="mask-type:alpha" maskUnits="userSpaceOnUse" x="0" y="0" width="128" height="176">
<path d="M98.33 176H29.6C20.66 176 16.18 176 12.64 174.6C10.0977 173.594 7.78861 172.078 5.85537 170.145C3.92212 168.211 2.40578 165.902 1.4 163.36C1.54972e-06 159.81 0 155.34 0 146.4V29.6C0 20.66 1.54972e-06 16.18 1.4 12.64C2.40578 10.0977 3.92212 7.78861 5.85537 5.85537C7.78861 3.92212 10.0977 2.40578 12.64 1.4C16.18 -3.57628e-07 20.66 0 29.6 0H68L122.8 54.8C124.45 56.45 125.28 57.28 125.92 58.22C126.845 59.5763 127.481 61.1079 127.79 62.72C127.99 63.84 127.99 65.02 127.99 67.4C127.96 116.32 127.94 116.8 127.94 146.37C127.94 155.33 127.94 159.82 126.54 163.37C125.533 165.91 124.016 168.218 122.083 170.149C120.15 172.081 117.841 173.595 115.3 174.6C111.75 176 107.28 176 98.33 176Z" fill="#3186FF"/>
</mask>
<g mask="url(#mask0_391_156)">
<path d="M127.94 176H0V0H68L128 60L127.94 176Z" fill="#3186FF"/>
</g>
</svg>
